<?xml version="1.0" standalone="no"?>
<!DOCTYPE svg PUBLIC "-//W3C//DTD SVG 20010904//EN"
 "http://www.w3.org/TR/2001/REC-SVG-20010904/DTD/svg10.dtd">
<svg version="1.0" xmlns="http://www.w3.org/2000/svg"
 width="900.000000pt" height="900.000000pt" viewBox="0 0 900.000000 900.000000"
 preserveAspectRatio="xMidYMid meet">

<g transform="translate(0.000000,900.000000) scale(0.100000,-0.100000)"
fill="#000000" stroke="none">
<path d="M1130 6235 l0 -85 3355 0 3355 0 0 85 0 85 -3355 0 -3355 0 0 -85z"/>
<path d="M1130 4540 l0 -90 3355 0 3355 0 0 90 0 90 -3355 0 -3355 0 0 -90z"/>
<path d="M1130 2835 l0 -85 3355 0 3355 0 0 85 0 85 -3355 0 -3355 0 0 -85z"/>
</g>
</svg>
